<svg width="194" height="70" viewBox="0 0 194 70" fill="none" xmlns="http://www.w3.org/2000/svg">
<path fill-rule="evenodd" clip-rule="evenodd" d="M107.756 24.5211C109.223 24.5797 111.291 24.6622 111.895 24.4849L111.915 51.9557L100.034 52.0678L100.158 64.9272C100.173 67.3075 98.4254 69.2393 96.239 69.2659C94.0557 69.2805 92.2638 67.3821 92.239 65.007L92.12 52.1425L80.239 52.2545L79.9153 17.933C79.8259 8.45345 86.8449 0.705401 95.5915 0.622893C96.2664 0.616528 97.5298 0.52726 99.0735 0.418192C103.567 0.100684 110.436 -0.38462 112.072 0.519051C112.074 3.02588 109.643 3.36748 106.695 3.78159C102.568 4.36144 97.4285 5.08345 96.5405 12.0908C96.4944 21.5295 100.586 24.5356 106.414 24.4806C106.677 24.4781 107.168 24.4977 107.756 24.5211ZM85.4647 46.4842L106.582 46.285L106.418 28.8849C93.8744 28.875 93.1401 20.574 93.06 12.088C93.0419 10.166 93.318 8.29271 93.8581 6.52161C88.8944 7.49348 85.1417 12.2356 85.1949 17.8832L85.4647 46.4842ZM19.712 5.43669C17.5573 3.87936 14.6773 3.10069 11.072 3.10069H0.863993C0.629327 3.10069 0.42666 3.18602 0.255993 3.35669C0.0853267 3.52736 -6.67572e-06 3.73003 -6.67572e-06 3.96469V24.6367C-6.67572e-06 24.8714 0.0853267 25.074 0.255993 25.2447C0.42666 25.4154 0.629327 25.5007 0.863993 25.5007H11.072C14.72 25.5007 17.6107 24.7434 19.744 23.2287C21.8987 21.6927 22.976 19.2607 22.976 15.9327V12.6687C22.976 9.40469 21.888 6.99402 19.712 5.43669ZM13.6 18.5567C13.024 19.026 12.2347 19.2607 11.232 19.2607H8.31999V9.34069H11.232C12.2347 9.34069 13.024 9.58603 13.6 10.0767C14.1973 10.546 14.496 11.218 14.496 12.0927V16.5087C14.496 17.3834 14.1973 18.066 13.6 18.5567ZM49.3315 19.5167C49.1608 19.346 48.9582 19.2607 48.7235 19.2607H35.9555V17.2447H46.6435C46.8782 17.2447 47.0808 17.1594 47.2515 16.9887C47.4222 16.818 47.5075 16.6154 47.5075 16.3807V12.2207C47.5075 11.986 47.4222 11.7834 47.2515 11.6127C47.0808 11.442 46.8782 11.3567 46.6435 11.3567H35.9555V9.34069H48.4035C48.6382 9.34069 48.8408 9.25536 49.0115 9.08469C49.1822 8.91403 49.2675 8.71136 49.2675 8.47669V3.96469C49.2675 3.73003 49.1822 3.52736 49.0115 3.35669C48.8408 3.18602 48.6382 3.10069 48.4035 3.10069H28.4995C28.2648 3.10069 28.0622 3.18602 27.8915 3.35669C27.7208 3.52736 27.6355 3.73003 27.6355 3.96469V24.6367C27.6355 24.8714 27.7208 25.074 27.8915 25.2447C28.0622 25.4154 28.2648 25.5007 28.4995 25.5007H48.7235C48.9582 25.5007 49.1608 25.4154 49.3315 25.2447C49.5022 25.074 49.5875 24.8714 49.5875 24.6367V20.1247C49.5875 19.89 49.5022 19.6874 49.3315 19.5167ZM77.895 3.32469C77.767 3.17536 77.607 3.10069 77.415 3.10069H70.663C70.2577 3.10069 69.9377 3.20736 69.703 3.42069C69.4683 3.63402 69.3083 3.87936 69.223 4.15669L65.543 16.4127L61.863 4.15669C61.7777 3.90069 61.607 3.66603 61.351 3.45269C61.1163 3.21802 60.807 3.10069 60.423 3.10069H53.671C53.479 3.10069 53.3083 3.17536 53.159 3.32469C53.031 3.45269 52.967 3.61269 52.967 3.80469L52.999 4.02869L60.423 24.5407C60.5083 24.7754 60.6683 24.9994 60.903 25.2127C61.1377 25.4047 61.447 25.5007 61.831 25.5007H69.287C69.671 25.5007 69.9803 25.4047 70.215 25.2127C70.4497 24.9994 70.6203 24.7434 70.727 24.4447L78.087 4.02869L78.119 3.80469C78.119 3.61269 78.0443 3.45269 77.895 3.32469ZM138.208 19.1967C138.037 19.026 137.835 18.9407 137.6 18.9407H126.688V3.96469C126.688 3.73003 126.603 3.52736 126.432 3.35669C126.261 3.18602 126.059 3.10069 125.824 3.10069H118.912C118.677 3.10069 118.475 3.18602 118.304 3.35669C118.133 3.52736 118.048 3.73003 118.048 3.96469V24.6367C118.048 24.8714 118.133 25.074 118.304 25.2447C118.475 25.4154 118.677 25.5007 118.912 25.5007H137.6C137.835 25.5007 138.037 25.4154 138.208 25.2447C138.379 25.074 138.464 24.8714 138.464 24.6367V19.8047C138.464 19.57 138.379 19.3674 138.208 19.1967ZM145.811 23.4847C147.923 25.042 150.771 25.8207 154.355 25.8207C157.939 25.8207 160.777 25.042 162.867 23.4847C164.979 21.9274 166.035 19.4954 166.035 16.1887V3.96469C166.035 3.73003 165.95 3.52736 165.779 3.35669C165.609 3.18602 165.406 3.10069 165.171 3.10069H158.483C158.249 3.10069 158.046 3.18602 157.875 3.35669C157.705 3.52736 157.619 3.73003 157.619 3.96469V16.7007C157.619 17.5754 157.321 18.2474 156.723 18.7167C156.147 19.186 155.358 19.4207 154.355 19.4207C153.353 19.4207 152.553 19.186 151.955 18.7167C151.379 18.2474 151.091 17.5754 151.091 16.7007V3.96469C151.091 3.73003 151.006 3.52736 150.835 3.35669C150.665 3.18602 150.462 3.10069 150.227 3.10069H143.539C143.305 3.10069 143.102 3.18602 142.931 3.35669C142.761 3.52736 142.675 3.73003 142.675 3.96469V16.1887C142.675 19.4954 143.721 21.9274 145.811 23.4847ZM192.839 15.5167C192.242 14.642 191.527 14.0767 190.695 13.8207C191.292 13.6287 191.868 13.17 192.423 12.4447C192.978 11.7194 193.255 10.8447 193.255 9.82069V9.72469C193.255 7.50603 192.53 5.85269 191.079 4.76469C189.65 3.65536 187.42 3.10069 184.391 3.10069H171.527C171.292 3.10069 171.09 3.18602 170.919 3.35669C170.748 3.52736 170.663 3.73003 170.663 3.96469V24.6367C170.663 24.8714 170.748 25.074 170.919 25.2447C171.09 25.4154 171.292 25.5007 171.527 25.5007H184.711C187.655 25.5007 189.895 24.9247 191.431 23.7727C192.967 22.5994 193.735 20.8287 193.735 18.4607C193.735 17.3514 193.436 16.37 192.839 15.5167ZM184.231 9.02069C184.466 9.29802 184.583 9.62869 184.583 10.0127C184.583 10.3967 184.466 10.7487 184.231 11.0687C184.018 11.3674 183.698 11.5167 183.271 11.5167H178.983V8.60469H183.271C183.698 8.60469 184.018 8.74336 184.231 9.02069ZM184.711 19.5167C184.476 19.8367 184.114 19.9967 183.623 19.9967H178.983V16.8607H183.623C184.071 16.8607 184.423 17.01 184.679 17.3087C184.956 17.6074 185.095 17.9594 185.095 18.3647V18.3967C185.095 18.802 184.967 19.1754 184.711 19.5167ZM116.556 38.5007V32.2007H117.456V38.5007H116.556ZM125.219 38.5727C124.739 38.5727 124.295 38.4947 123.887 38.3387C123.485 38.1767 123.134 37.9517 122.834 37.6637C122.54 37.3697 122.309 37.0277 122.141 36.6377C121.973 36.2477 121.889 35.8187 121.889 35.3507C121.889 34.8827 121.973 34.4537 122.141 34.0637C122.309 33.6737 122.543 33.3347 122.843 33.0467C123.143 32.7527 123.494 32.5277 123.896 32.3717C124.304 32.2097 124.748 32.1287 125.228 32.1287C125.714 32.1287 126.161 32.2127 126.569 32.3807C126.983 32.5427 127.334 32.7857 127.622 33.1097L127.037 33.6767C126.797 33.4247 126.527 33.2387 126.227 33.1187C125.927 32.9927 125.606 32.9297 125.264 32.9297C124.91 32.9297 124.58 32.9897 124.274 33.1097C123.974 33.2297 123.713 33.3977 123.491 33.6137C123.269 33.8297 123.095 34.0877 122.969 34.3877C122.849 34.6817 122.789 35.0027 122.789 35.3507C122.789 35.6987 122.849 36.0227 122.969 36.3227C123.095 36.6167 123.269 36.8717 123.491 37.0877C123.713 37.3037 123.974 37.4717 124.274 37.5917C124.58 37.7117 124.91 37.7717 125.264 37.7717C125.606 37.7717 125.927 37.7117 126.227 37.5917C126.527 37.4657 126.797 37.2737 127.037 37.0157L127.622 37.5827C127.334 37.9067 126.983 38.1527 126.569 38.3207C126.161 38.4887 125.711 38.5727 125.219 38.5727ZM132.866 37.7177V35.6837H136.025V34.9187H132.866V32.9837H136.412V32.2007H131.966V38.5007H136.538V37.7177H132.866ZM149.35 38.5727C148.87 38.5727 148.426 38.4947 148.018 38.3387C147.616 38.1767 147.265 37.9517 146.965 37.6637C146.671 37.3697 146.44 37.0277 146.272 36.6377C146.104 36.2477 146.02 35.8187 146.02 35.3507C146.02 34.8827 146.104 34.4537 146.272 34.0637C146.44 33.6737 146.674 33.3347 146.974 33.0467C147.274 32.7527 147.625 32.5277 148.027 32.3717C148.435 32.2097 148.879 32.1287 149.359 32.1287C149.845 32.1287 150.292 32.2127 150.7 32.3807C151.114 32.5427 151.465 32.7857 151.753 33.1097L151.168 33.6767C150.928 33.4247 150.658 33.2387 150.358 33.1187C150.058 32.9927 149.737 32.9297 149.395 32.9297C149.041 32.9297 148.711 32.9897 148.405 33.1097C148.105 33.2297 147.844 33.3977 147.622 33.6137C147.4 33.8297 147.226 34.0877 147.1 34.3877C146.98 34.6817 146.92 35.0027 146.92 35.3507C146.92 35.6987 146.98 36.0227 147.1 36.3227C147.226 36.6167 147.4 36.8717 147.622 37.0877C147.844 37.3037 148.105 37.4717 148.405 37.5917C148.711 37.7117 149.041 37.7717 149.395 37.7717C149.737 37.7717 150.058 37.7117 150.358 37.5917C150.658 37.4657 150.928 37.2737 151.168 37.0157L151.753 37.5827C151.465 37.9067 151.114 38.1527 150.7 38.3207C150.292 38.4887 149.842 38.5727 149.35 38.5727ZM156.096 32.2007H158.553C159.105 32.2007 159.576 32.2877 159.966 32.4617C160.356 32.6357 160.656 32.8877 160.866 33.2177C161.076 33.5477 161.181 33.9407 161.181 34.3967C161.181 34.8527 161.076 35.2457 160.866 35.5757C160.656 35.8997 160.356 36.1487 159.966 36.3227C159.911 36.3475 159.854 36.3705 159.795 36.3917L161.289 38.5007H160.308L158.954 36.5673C158.825 36.5782 158.692 36.5837 158.553 36.5837H156.996V38.5007H156.096V32.2007ZM158.526 35.8187H156.996V32.9837H158.526C159.102 32.9837 159.537 33.1067 159.831 33.3527C160.131 33.5987 160.281 33.9467 160.281 34.3967C160.281 34.8467 160.131 35.1977 159.831 35.4497C159.537 35.6957 159.102 35.8187 158.526 35.8187ZM166.595 37.7177V35.6837H169.755V34.9187H166.595V32.9837H170.141V32.2007H165.695V38.5007H170.268V37.7177H166.595ZM176.684 32.2007H177.575L180.437 38.5007H179.492L178.8 36.9257H175.45L174.758 38.5007H173.831L176.684 32.2007ZM177.125 33.1143L178.483 36.2057H175.766L177.125 33.1143ZM184.437 32.2007H185.175L187.801 36.626L190.395 32.2007H191.133L191.142 38.5007H190.278L190.269 33.9066L187.992 37.7357H187.578L185.301 33.9352V38.5007H184.437V32.2007Z" fill="white"/>
</svg>
